<svg xmlns="http://www.w3.org/2000/svg" viewBox="0 0 998.45 664.33"><title>adidas-39</title><path d="M953.42,627.33a25.21,25.21,0,0,0,12.92,3.46h.14a25.24,25.24,0,0,0,12.93-3.46,22.92,22.92,0,0,0,9.62-9.61,25.83,25.83,0,0,0,3.45-12.92A26.14,26.14,0,0,0,989,591.57a23.33,23.33,0,0,0-9.77-9.61,26.67,26.67,0,0,0-12.78-3.45h-.14A28.45,28.45,0,0,0,953.56,582a24.07,24.07,0,0,0-9.76,9.61,26,26,0,0,0-3.45,13.23,25.74,25.74,0,0,0,3.45,12.92,22.75,22.75,0,0,0,9.62,9.61Zm-5.85-33.5a20.89,20.89,0,0,1,8.11-8.12,23.12,23.12,0,0,1,10.66-2.85h.14a23.23,23.23,0,0,1,10.68,2.85,21.16,21.16,0,0,1,8.11,8.12,22.16,22.16,0,0,1,0,21.78,20.31,20.31,0,0,1-8,8,21.62,21.62,0,0,1-10.82,2.86h-.14a21.59,21.59,0,0,1-10.82-2.86,20.22,20.22,0,0,1-7.95-8,21.23,21.23,0,0,1,0-21.78Z" transform="translate(-1.55 -165.67)" fill-rule="evenodd"/><path d="M959.42,607.2h2.7a4.94,4.94,0,0,1,3.61,1,2,2,0,0,1,.61.45c1.2,1,2.55,3.16,4.21,6l2.55,4.51h5.41l-3.3-5.56A37.67,37.67,0,0,0,971,608.1a7.46,7.46,0,0,0-2.41-1.5,8.79,8.79,0,0,0,5.86-2.55,7.39,7.39,0,0,0,2.27-5.42,6.59,6.59,0,0,0-1.36-4,6.46,6.46,0,0,0-3.61-2.71,16,16,0,0,0-5.41-.75c-.45,0-1.05-.15-1.65-.15h-9.76v28.24h4.5v-12Zm0-12.32h6.92a22.87,22.87,0,0,1,2.85.45,3.3,3.3,0,0,1,1.95,1.5,3.65,3.65,0,0,1,.6,2.26,3.74,3.74,0,0,1-1.35,3c-.76.75-2.11,1-4.06,1.2h-6.91v-8.41ZM284.73,598H325.3l-40.56-67.61L250.48,473.5,104.91,560.93,127.14,598H284.73Zm377.39,0H860.28L736.93,392.52,600.52,165.67l-56.19,33.8L455.1,253.1l89.23,148.58Zm-69.25,67.75a88.23,88.23,0,0,0-48.09-14.27h-.45a89.24,89.24,0,0,0,0,178.48h.45a88.23,88.23,0,0,0,48.09-14.27V825h41V598h-41Zm0,84.29a49.28,49.28,0,0,1-48.09,39.8h-.45a49.05,49.05,0,0,1,0-98.1h.45a49.16,49.16,0,0,1,48.09,39.67Zm192.59-84.29a87.77,87.77,0,0,0-48.07-14.27h-.46a89.24,89.24,0,0,0,0,178.48h.46a87.76,87.76,0,0,0,48.07-14.27V825h41V656h-41v9.76Zm0,84.29a49.26,49.26,0,0,1-48.07,39.8h-.46a49.05,49.05,0,0,1,0-98.1h.46a49.15,49.15,0,0,1,48.07,39.67Zm186.89-20.44c-1.5-.76-3.61-1.5-6-2.41-9.17-3.15-24-7.06-44.77-11.56-18.18-4.06-27.35-9.31-27.35-15.93A14,14,0,0,1,899,688.63q6.32-5.42,22.54-5.41c11,0,18.92,2.4,23.58,7.06,2.86,2.85,5,8,6.31,15.17H995c0-21.33-8.71-36.65-25.84-46a17.22,17.22,0,0,0-2.85-1.5c-11.88-5.56-27.65-8.41-47.33-8.41-23.89,0-41.91,6.31-53.92,19.08-9.62,10.21-14.27,22.68-14.27,37.4,0,18.34,9,31.55,27.34,40.12,6.91,3.3,23.73,8,50.48,13.67,17.87,3.91,26.88,9.47,26.88,16.53,0,4.21-1.8,7.81-5.7,11.12q-7.44,6.3-22.54,6.31c-13.37,0-22.84-2.25-28.39-6.61-5.57-4.2-8.42-10.36-8.42-18.17H844.8c0,20.73,8.72,36.2,26.29,46.41,14,8,32.3,12,55,12,15.16,0,28.68-2.55,40.25-7.5,2.41-1.06,4.52-2.11,6.77-3.31C991,806.73,1000,791,1000,769.32,1000,751.58,990.82,738.35,972.35,729.64ZM138.86,665.79a88.65,88.65,0,0,0-48.22-14.27h-.46a89.24,89.24,0,0,0,0,178.48h.46a88.67,88.67,0,0,0,48.22-14.27V825h41V656h-41v9.76Zm0,84.29a49.31,49.31,0,0,1-48.22,39.8h-.46a49.05,49.05,0,0,1,0-98.1h.46a49.19,49.19,0,0,1,48.22,39.67Zm256-111.93h44.63V598.94H394.85Zm0,186.89h44.63V651.52H394.85ZM333.41,665.79a88.66,88.66,0,0,0-48.23-14.27h-.45a89.24,89.24,0,0,0,0,178.48h.44a88.66,88.66,0,0,0,48.23-14.27V825h41V598h-41v67.75Zm0,84.29a49.3,49.3,0,0,1-48.23,39.8h-.45a49.05,49.05,0,0,1,0-98.1h.44a49.19,49.19,0,0,1,48.23,39.67v18.63Zm259.3-152-48.38-80.82L425.5,319.51,284.74,404.24l-4.81,2.85,4.81,8,110,183Z" transform="translate(-1.55 -165.67)" fill-rule="evenodd"/></svg>